<svg width="748" height="157" viewBox="0 0 748 157" fill="none" xmlns="http://www.w3.org/2000/svg">
<g clip-path="url(#clip0_556_8700)">
<path d="M180.399 84.0999H183.999V51.6997H180.399V39.8916H213.448C219.64 39.8916 224.367 41.1646 227.632 43.7083C230.895 46.2527 232.527 50.3806 232.527 56.092C232.527 59.3081 231.879 62.0928 230.583 64.4439C229.287 66.7964 227.439 68.429 225.04 69.3401L225.112 70.0601C229.719 70.78 232.023 73.613 232.023 78.5562V84.0999H235.407V95.908H212.583V78.9883C212.583 77.1162 212.307 75.7004 211.755 74.7402C211.203 73.78 210.339 73.1326 209.164 72.7957C207.987 72.4609 206.32 72.2918 204.159 72.2918V84.0999H208.911V95.908H180.399V84.0999ZM208.048 63.5078C209.439 63.5078 210.483 63.1365 211.179 62.3916C211.875 61.6482 212.223 60.4836 212.223 58.9001V56.3081C212.223 54.7239 211.875 53.5608 211.179 52.8159C210.483 52.0725 209.439 51.6997 208.048 51.6997H204.159V63.5078H208.048Z" fill="#FAFBFF"/>
<path d="M283.215 84.0999V95.908H263.487V90.2918C260.031 94.709 255.711 96.9158 250.527 96.9158C246.542 96.9158 243.554 95.6685 241.563 93.1716C239.57 90.677 238.575 87.2441 238.575 82.876V67.6841H235.407V55.876H255.135V79.4922C255.135 81.0757 255.483 82.2402 256.179 82.9836C256.875 83.7285 257.918 84.0999 259.311 84.0999C260.703 84.0999 261.747 83.7285 262.443 82.9836C263.138 82.2402 263.487 81.0757 263.487 79.4922V67.6841H259.599V55.876H280.047V84.0999H283.215Z" fill="#FAFBFF"/>
<path d="M286.215 94.0359V83.3799H297.88V84.0999C297.88 86.4041 299.343 87.5562 302.271 87.5562C304.864 87.5562 306.16 86.6685 306.16 84.8916C306.16 83.9321 305.787 83.2122 305.044 82.7317C304.299 82.2527 302.991 81.844 301.119 81.5078L297.52 80.8596C289.984 79.5164 286.215 75.2441 286.215 68.0437C286.215 63.8682 287.8 60.6279 290.968 58.3237C294.136 56.0203 298.407 54.8682 303.784 54.8682C309.783 54.8682 314.847 55.876 318.976 57.8916V67.9002H308.032V67.1802C308.032 66.22 307.708 65.4883 307.059 64.9836C306.412 64.4797 305.463 64.2278 304.215 64.2278C301.815 64.2278 300.615 64.9961 300.615 66.532C300.615 67.3486 300.951 67.9719 301.624 68.4041C302.296 68.8362 303.52 69.2441 305.296 69.6279L309.399 70.4197C313.672 71.2371 316.719 72.7488 318.544 74.9563C320.367 77.1646 321.28 79.9961 321.28 83.4517C321.28 87.8206 319.755 91.156 316.708 93.4602C313.659 95.7637 309.328 96.9158 303.711 96.9158C297.664 96.9158 291.832 95.9556 286.215 94.0359Z" fill="#FAFBFF"/>
<path d="M329.085 93.2083C326.517 90.7363 325.234 86.5725 325.234 80.7161V67.6841H322.065V55.876C323.889 55.876 325.257 55.408 326.17 54.4719C327.081 53.5359 327.538 52.2527 327.538 50.6201V47.3799H342.802V55.876H352.521V67.6841H342.802V79.4922C342.802 81.0757 343.149 82.2402 343.845 82.9836C344.541 83.7285 345.585 84.0999 346.978 84.0999C348.801 84.0999 350.794 83.8838 352.954 83.4517V94.7559C351.609 95.2847 349.797 95.7761 347.518 96.2317C345.237 96.6873 342.921 96.9158 340.57 96.9158C335.481 96.9158 331.653 95.6809 329.085 93.2083Z" fill="#FAFBFF"/>
<path d="M362.817 90.0039C357.897 85.3962 355.437 78.0281 355.437 67.9002C355.437 48.5569 364.844 38.8838 383.661 38.8838C388.221 38.8838 392.457 39.436 396.369 40.5398C400.281 41.645 403.197 42.8689 405.117 44.2122V62.2122H387.837V57.0281C387.837 55.2043 387.429 53.8596 386.614 52.9961C385.797 52.1318 384.573 51.6997 382.941 51.6997C381.309 51.6997 380.085 52.1318 379.27 52.9961C378.453 53.8596 378.046 55.2043 378.046 57.0281V78.7722C378.046 80.5967 378.453 81.9399 379.27 82.8042C380.085 83.6677 381.309 84.0999 382.941 84.0999C384.573 84.0999 385.797 83.6677 386.614 82.8042C387.429 81.9399 387.837 80.5967 387.837 78.7722V72.9399H405.117V91.5881C403.149 92.9321 400.233 94.156 396.369 95.2598C392.505 96.3635 388.316 96.9158 383.805 96.9158C374.734 96.9158 367.737 94.6123 362.817 90.0039Z" fill="#FAFBFF"/>
<path d="M502.472 84.0999V95.908H479.72V84.0999H482.745V72.2918C482.745 70.7083 482.408 69.5444 481.737 68.8003C481.064 68.0562 480.056 67.6841 478.713 67.6841C475.833 67.6841 474.393 69.2207 474.393 72.2918V84.0999H477.417V95.908H454.664V84.0999H457.833V67.6841H454.664V55.876H474.393V61.4922C477.848 57.0764 482.169 54.8682 487.352 54.8682C491.336 54.8682 494.324 56.1169 496.316 58.6123C498.308 61.1084 499.305 64.5405 499.305 68.908V84.0999H502.472Z" fill="#FAFBFF"/>
<path d="M505.472 84.0999H508.641V67.6841H505.472V55.876H508.784C508.784 50.0203 510.213 45.7239 513.069 42.9883C515.924 40.252 520.089 38.8838 525.561 38.8838C528.2 38.8838 530.564 39.0764 532.653 39.4602C534.741 39.8447 536.264 40.2769 537.225 40.7559V52.0601C534.68 51.8206 532.329 51.6997 530.169 51.6997C528.297 51.6997 527.001 52.0125 526.281 52.6357C525.561 53.2605 525.201 54.3401 525.201 55.876H530.816V67.6841H525.201V84.0999H530.816V95.908H505.472V84.0999Z" fill="#FAFBFF"/>
<path d="M553.134 89.7131C553.134 85.5854 553.746 81.937 554.97 78.769C556.194 75.6011 558.198 72.613 560.982 69.8049C563.766 66.9971 567.606 64.0811 572.502 61.0571C573.942 60.1458 574.961 59.365 575.562 58.717C576.162 58.0691 576.462 57.2893 576.462 56.377C576.462 54.4094 575.046 53.425 572.214 53.425C570.102 53.425 567.678 53.9773 564.942 55.0811C562.206 56.1858 559.733 57.5774 557.526 59.2571L553.278 43.9211C556.35 42.3855 559.877 41.0771 563.862 39.9971C567.846 38.917 571.854 38.377 575.886 38.377C582.51 38.377 587.646 39.8418 591.294 42.769C594.941 45.6975 596.766 49.8499 596.766 55.2251C596.766 58.105 596.129 60.6375 594.858 62.821C593.586 65.0059 592.05 66.8418 590.25 68.3291C588.45 69.8174 586.11 71.5217 583.23 73.4409C580.014 75.5537 577.65 77.365 576.138 78.877C574.626 80.3889 573.87 82.1294 573.87 84.0969H582.582V79.9929H597.342V95.905H553.134V89.7131Z" fill="#FAFBFF"/>
<path d="M606.593 90.0007C602.201 85.3928 600.005 78.0251 600.005 67.8967C600.005 57.7695 602.201 50.4009 606.593 45.7927C610.985 41.1848 617.237 38.8809 625.349 38.8809C633.46 38.8809 639.713 41.1848 644.105 45.7927C648.498 50.4009 650.693 57.7695 650.693 67.8967C650.693 77.2568 648.665 84.4331 644.609 89.4248C640.552 94.4175 634.133 96.9128 625.349 96.9128C617.237 96.9128 610.985 94.6089 606.593 90.0007ZM630.246 78.7688V57.0249C630.246 53.4731 628.613 51.6968 625.349 51.6968C622.084 51.6968 620.454 53.4731 620.454 57.0249V78.7688C620.454 82.3215 622.084 84.0967 625.349 84.0967C628.613 84.0967 630.246 82.3215 630.246 78.7688Z" fill="#FAFBFF"/>
<path d="M652.564 89.7131C652.564 85.5854 653.177 81.937 654.401 78.769C655.625 75.6011 657.628 72.613 660.413 69.8049C663.196 66.9971 667.037 64.0811 671.933 61.0571C673.373 60.1458 674.392 59.365 674.993 58.717C675.592 58.0691 675.893 57.2893 675.893 56.377C675.893 54.4094 674.476 53.425 671.645 53.425C669.532 53.425 667.109 53.9773 664.373 55.0811C661.637 56.1858 659.164 57.5774 656.957 59.2571L652.708 43.9211C655.78 42.3855 659.308 41.0771 663.292 39.9971C667.276 38.917 671.285 38.377 675.317 38.377C681.941 38.377 687.076 39.8418 690.725 42.769C694.372 45.6975 696.197 49.8499 696.197 55.2251C696.197 58.105 695.56 60.6375 694.289 62.821C693.016 65.0059 691.48 66.8418 689.681 68.3291C687.881 69.8174 685.541 71.5217 682.661 73.4409C679.444 75.5537 677.081 77.365 675.569 78.877C674.057 80.3889 673.301 82.1294 673.301 84.0969H682.013V79.9929H696.772V95.905H652.564V89.7131Z" fill="#FAFBFF"/>
<path d="M743.248 65.1609C746.248 68.2332 747.748 72.5049 747.748 77.9768C747.748 84.0732 745.744 88.7532 741.736 92.0168C737.728 95.2815 732.076 96.9128 724.78 96.9128C716.332 96.9128 710.044 94.6211 705.916 90.0369C701.788 85.4536 699.724 78.4336 699.724 68.9768C699.724 58.6089 702.16 51.0015 707.032 46.1528C711.903 41.3052 718.612 38.8809 727.156 38.8809C730.66 38.8809 733.924 39.1812 736.948 39.7808C739.972 40.3816 742.396 41.1611 744.22 42.1208V56.6648C742.396 55.8491 740.308 55.1887 737.956 54.6848C735.604 54.1807 733.107 53.9287 730.468 53.9287C723.604 53.9287 720.172 56.4736 720.172 61.5608V62.4248C721.66 61.8972 723.34 61.4529 725.212 61.0928C727.084 60.7329 728.932 60.5527 730.756 60.5527C736.084 60.5527 740.248 62.0896 743.248 65.1609ZM728.74 82.6208C729.556 81.6375 729.964 80.0896 729.964 77.9768C729.964 76.0576 729.543 74.5569 728.704 73.4768C727.864 72.3967 726.58 71.8567 724.852 71.8567C723.22 71.8567 721.66 72.1694 720.172 72.7927V78.5527C720.172 80.4731 720.58 81.8772 721.396 82.7649C722.212 83.6536 723.436 84.0967 725.068 84.0967C726.7 84.0967 727.923 83.6052 728.74 82.6208Z" fill="#FAFBFF"/>
<path d="M414.634 91.5493C410.793 87.9741 408.874 82.7539 408.874 75.8892C408.874 69.0256 410.793 63.8057 414.634 60.2292C418.473 56.6541 423.801 54.8652 430.617 54.8652C437.53 54.8652 442.881 56.6777 446.674 60.3013C450.465 63.926 452.362 69.1213 452.362 75.8892C452.362 82.7539 450.441 87.9741 446.602 91.5493C442.761 95.1257 437.433 96.9133 430.617 96.9133C423.801 96.9133 418.473 95.1257 414.634 91.5493ZM433.75 82.9812C434.445 82.2375 434.793 81.0732 434.793 79.4893V72.2893C434.793 70.7053 434.445 69.542 433.75 68.7974C433.053 68.0537 432.009 67.6812 430.617 67.6812C429.225 67.6812 428.181 68.0537 427.486 68.7974C426.789 69.542 426.441 70.7053 426.441 72.2893V79.4893C426.441 81.0732 426.789 82.2375 427.486 82.9812C428.181 83.7261 429.225 84.0972 430.617 84.0972C432.009 84.0972 433.053 83.7261 433.75 82.9812Z" fill="#FAFBFF"/>
<path d="M77.6365 14.1975C74.955 14.6457 73.4186 17.1533 73.8379 19.5277C74.2903 22.091 76.6684 23.7548 79.2581 23.2868C81.6235 22.8592 83.3378 20.5516 82.9641 18.0812C82.5932 15.6299 80.3374 13.7462 77.6365 14.1975ZM128.828 83.0155C128.827 82.5409 129.21 82.066 129.67 82.0651L135.506 82.0531C135.745 78.7235 135.713 75.4915 135.383 72.1679L125.169 67.6391C122.934 66.7688 121.695 64.2459 122.705 61.9627L128.182 49.5821C119.946 35.0714 105.619 24.8407 89.1424 21.7612L81.1318 29.3954C79.3915 30.9828 76.8378 30.9258 75.1927 29.239L68.0067 21.7482C55.803 24.1305 44.7349 30.2087 36.1826 39.7205L96.9643 39.8426C103.195 39.8552 108.901 43.1227 113.133 47.2721C116.425 50.9319 118.24 55.2766 117.779 60.155C117.156 66.7376 111.442 71.6318 106.217 75.0442L109.596 77.9064C113.021 80.8072 114.528 85.6948 115.312 89.9852C115.95 93.4807 120.482 94.1908 123.52 93.5257C129.116 92.3007 128.837 87.182 128.828 83.0155ZM22.267 56.1658C19.5646 56.6806 18.0309 59.2662 18.6213 61.7702C19.1829 64.1522 21.54 65.7468 24.0822 65.2164C26.4632 64.7198 28.1711 62.3373 27.6427 59.772C27.1665 57.4609 24.9038 55.6635 22.267 56.1658ZM132.79 56.1695C130.083 56.6982 128.569 59.2835 129.164 61.7812C129.731 64.1654 132.093 65.7415 134.614 65.2179C137.017 64.7189 138.708 62.3184 138.182 59.7706C137.701 57.4455 135.418 55.656 132.79 56.1695ZM23.786 93.4479L40.0597 93.431L40.0536 57.0249L32.03 57.0429L34.173 61.9609C34.8137 63.8782 34.0708 66.2425 32.0917 67.13L21.9144 71.6951C21.144 79.0232 21.7186 86.332 23.786 93.4479ZM91.9266 63.5632C92.2779 59.5136 87.6436 57.4439 84.8669 57.4417L65.7143 57.4262L65.7068 68.1465L84.0016 68.1348C86.9064 68.1328 91.6352 66.923 91.9266 63.5632ZM104.576 118.655C105.074 116.376 107.504 115.266 109.541 115.701L119.319 117.787C121.197 115.816 122.818 114.047 124.501 111.706L100.634 111.676C98.8915 111.623 97.7852 110.882 97.1234 110.379C94.1546 108.127 92.3348 104.847 91.5702 101.207L89.7741 92.6609C88.6959 87.5302 86.2233 84.0086 80.6216 83.5931L65.7301 83.5909L65.6972 94.0212L80.2109 94.0579L80.21 111.68L32.8021 111.697C34.2468 113.794 35.8194 115.538 37.6234 117.517L47.2216 115.477C49.5696 114.978 51.7701 116.433 52.276 118.78L54.6022 129.574C69.7114 136.574 87.0407 136.631 102.145 129.79L104.576 118.655ZM43.3579 121.424C40.646 121.845 39.0789 124.345 39.512 126.809C39.9404 129.246 42.2742 130.891 44.6463 130.567C47.2466 130.212 48.9787 127.888 48.6355 125.348C48.3081 122.925 46.0482 121.006 43.3579 121.424ZM111.916 121.644C109.245 122.104 107.754 124.633 108.15 126.933C108.603 129.559 111.011 131.187 113.554 130.731C115.977 130.296 117.669 127.959 117.277 125.488C116.889 123.036 114.606 121.181 111.916 121.644ZM80.7547 1.86108L84.5815 8.01105L86.5065 8.20837L91.7163 2.62244C92.205 2.09839 93.0568 1.8156 93.7685 1.91558C94.2904 1.98896 95.1577 2.48928 95.3956 3.11968L98.2187 10.6023L99.9877 11.1088L106.518 6.43253C107.045 6.05548 108.084 6.15874 108.617 6.42682C109.128 6.6839 109.687 7.38813 109.795 8.05083L111.049 15.769L112.642 16.6046L119.803 13.3417C120.518 13.0158 121.502 13.2065 122.067 13.655C122.661 14.1272 122.944 14.9501 122.911 15.7954L122.626 23.2723L124.053 24.4199L131.716 22.6137C132.349 22.4645 133.24 22.7849 133.664 23.1646C134.038 23.4993 134.514 24.432 134.376 25.0275L132.542 32.8871L133.684 34.3202L141.388 34.0387C142.12 34.0119 142.913 34.4024 143.303 34.8935C143.684 35.3745 143.954 36.3764 143.678 36.9848L140.35 44.3141L141.185 45.9034L148.904 47.1574C149.563 47.2646 150.273 47.8293 150.522 48.3327C150.843 48.9789 150.868 49.9629 150.426 50.5777L145.838 56.9641L146.334 58.7399L153.537 61.4283C154.18 61.6684 154.789 62.3122 154.947 62.8218C155.172 63.5425 154.997 64.6077 154.443 65.1256L148.745 70.449L148.939 72.3745L155.486 76.4236C156.11 76.8092 156.536 77.6513 156.536 78.3221C156.536 78.9925 156.111 79.8351 155.488 80.2207L148.94 84.271L148.745 86.2011L154.327 91.4073C154.922 91.9619 155.167 92.8173 154.992 93.6734C154.879 94.2289 154.245 94.9515 153.53 95.2183L146.346 97.9025L145.835 99.6838L150.334 105.93C150.789 106.561 150.879 107.465 150.592 108.169C150.318 108.845 149.545 109.393 148.719 109.525L141.185 110.739L140.347 112.333L143.612 119.497C143.902 120.133 143.769 121.062 143.399 121.622C143.015 122.202 142.199 122.637 141.386 122.607L133.684 122.324L132.536 123.759L134.338 131.411C134.488 132.046 134.179 132.933 133.782 133.363C133.348 133.833 132.432 134.199 131.714 134.03L124.049 132.226L122.628 133.371L122.914 141.078C122.944 141.884 122.502 142.711 121.937 143.088C121.282 143.524 120.367 143.568 119.64 143.236L112.643 140.039L111.049 140.878L109.795 148.594C109.688 149.253 109.126 149.964 108.622 150.215C107.986 150.532 106.983 150.558 106.387 150.13L99.9794 145.524L98.211 146.034L95.5257 153.225C95.2634 153.928 94.5429 154.574 93.9602 154.694C93.1808 154.854 92.2619 154.611 91.7123 154.021L86.5015 148.434L84.5806 148.635L80.7165 154.832L80.3287 155.38C79.4911 156.561 77.7363 156.559 76.902 155.375L76.5192 154.832L72.6836 148.637L70.7597 148.435L65.5471 154.018C65.0376 154.564 64.2558 154.818 63.4779 154.73C62.9106 154.667 62.0629 154.08 61.7994 153.378L59.0482 146.041L57.2719 145.529L51.0141 150.034C50.3854 150.487 49.4821 150.566 48.7818 150.284C48.1016 150.01 47.5621 149.238 47.4285 148.409L46.2143 140.878L44.6209 140.04L37.4584 143.305C36.8227 143.594 35.8911 143.463 35.3301 143.091C34.7559 142.711 34.3174 141.885 34.347 141.077L34.63 133.378L33.2172 132.224L25.5478 134.032C24.9112 134.182 24.0264 133.875 23.59 133.474C23.1246 133.046 22.7566 132.121 22.9247 131.406L24.7297 123.736L23.5744 122.322L15.8776 122.608C15.0615 122.638 14.2465 122.206 13.8651 121.628C13.4331 120.973 13.3865 120.06 13.7196 119.331L16.916 112.335L16.0764 110.742L8.35977 109.49C7.6984 109.382 6.9834 108.817 6.73928 108.317C6.42133 107.666 6.39826 106.677 6.83179 106.074L11.4314 99.6717L10.9207 97.904L3.72856 95.2178C3.02302 94.9542 2.38053 94.2291 2.26495 93.6721C2.08785 92.8193 2.34406 91.958 2.93513 91.4067L8.52193 86.1945L8.3189 84.2714L2.15158 80.4262L1.59303 80.0274C0.434842 79.2008 0.427372 77.4821 1.5783 76.6456L2.15158 76.229L8.3189 72.3738L8.52171 70.4521L2.93139 65.2375C2.36032 64.7049 2.08148 63.7803 2.26122 62.9886C2.37767 62.4757 2.93996 61.7304 3.57168 61.4935L10.9225 58.737L11.4252 56.9682L6.82959 50.57C6.39321 49.9622 6.42331 48.9734 6.73994 48.3281C6.98692 47.8249 7.69949 47.265 8.36065 47.1574L16.0762 45.9023L16.9149 44.3079L13.7194 37.3142C13.3867 36.586 13.4302 35.6739 13.8666 35.0165C14.2388 34.4558 15.0736 34.0082 15.8765 34.0379L23.5757 34.3226L24.7291 32.91L22.9247 25.2382C22.7564 24.5232 23.1244 23.6021 23.5916 23.1721C24.0238 22.7741 24.9115 22.4645 25.5463 22.6142L33.2176 24.4214L34.6327 23.2681L34.3468 15.5666C34.3169 14.7615 34.7579 13.9319 35.3296 13.5539C35.8928 13.1819 36.8214 13.0505 37.4579 13.3408L44.6189 16.6046L46.2141 15.7648L47.4285 8.23562C47.5626 7.40527 48.1062 6.63292 48.7827 6.36089C49.496 6.07393 50.3896 6.16183 51.0261 6.62018L57.2713 11.1167L59.0508 10.6049L61.735 3.42312C62.0018 2.70924 62.7234 2.0718 63.2848 1.95534C64.1296 1.78022 64.9943 2.03378 65.5475 2.62684L70.7586 8.21232L72.6843 8.00819L76.5575 1.86108L76.9604 1.30077C77.7877 0.150712 79.4965 0.143242 80.3337 1.28627L80.7547 1.86108Z" fill="#F74C00"/>
<path d="M180.399 139.546V111.644H183.922V139.546H180.399ZM182.932 126.248V123.201H199.595V126.248H182.932ZM198.605 139.546V111.644H202.088V139.546H198.605Z" fill="#FAFBFF"/>
<path d="M217.484 140.021C215.61 140.021 213.922 139.579 212.418 138.695C210.914 137.811 209.733 136.558 208.876 134.935C208.018 133.312 207.589 131.393 207.589 129.177C207.589 126.934 208.025 125.001 208.895 123.378C209.766 121.756 210.954 120.496 212.457 119.599C213.961 118.702 215.637 118.253 217.484 118.253C219.384 118.253 221.086 118.695 222.59 119.579C224.094 120.463 225.274 121.716 226.132 123.339C226.989 124.961 227.418 126.908 227.418 129.177C227.418 131.393 226.989 133.312 226.132 134.935C225.274 136.558 224.094 137.811 222.59 138.695C221.086 139.579 219.384 140.021 217.484 140.021ZM217.523 137.171C218.684 137.171 219.753 136.881 220.729 136.301C221.705 135.721 222.484 134.843 223.064 133.669C223.645 132.495 223.935 130.997 223.935 129.177C223.935 127.33 223.645 125.812 223.064 124.625C222.484 123.438 221.705 122.561 220.729 121.993C219.753 121.426 218.684 121.142 217.523 121.142C216.336 121.142 215.254 121.426 214.278 121.993C213.302 122.561 212.523 123.438 211.943 124.625C211.362 125.812 211.072 127.33 211.072 129.177C211.072 130.997 211.362 132.495 211.943 133.669C212.523 134.843 213.302 135.721 214.278 136.301C215.254 136.881 216.336 137.171 217.523 137.171Z" fill="#FAFBFF"/>
<path d="M239.608 140.021C237.392 140.021 235.551 139.552 234.087 138.616C232.623 137.68 231.613 136.301 231.059 134.48L234.107 133.491C234.555 134.863 235.248 135.845 236.185 136.439C237.121 137.033 238.289 137.33 239.687 137.33C241.086 137.33 242.161 137.046 242.913 136.479C243.665 135.912 244.041 135.074 244.041 133.965C244.041 133.069 243.784 132.376 243.269 131.888C242.755 131.4 241.943 131.011 240.835 130.72L237.234 129.731C235.545 129.309 234.278 128.629 233.434 127.692C232.589 126.756 232.168 125.589 232.168 124.19C232.168 123.002 232.49 121.96 233.137 121.063C233.783 120.166 234.674 119.474 235.809 118.985C236.943 118.497 238.263 118.253 239.767 118.253C241.059 118.253 242.22 118.438 243.249 118.807C244.278 119.177 245.149 119.704 245.862 120.39C246.574 121.077 247.089 121.921 247.405 122.923L244.437 123.952C244.014 122.923 243.408 122.171 242.616 121.696C241.825 121.221 240.848 120.984 239.687 120.984C238.342 120.984 237.313 121.248 236.6 121.775C235.888 122.303 235.532 123.055 235.532 124.031C235.532 124.744 235.762 125.344 236.224 125.832C236.686 126.321 237.484 126.723 238.619 127.039L242.379 128.029C243.434 128.293 244.331 128.676 245.07 129.177C245.808 129.678 246.376 130.305 246.772 131.057C247.168 131.808 247.366 132.738 247.366 133.847C247.366 135.113 247.042 136.208 246.396 137.132C245.749 138.056 244.852 138.768 243.705 139.269C242.557 139.77 241.191 140.021 239.608 140.021Z" fill="#FAFBFF"/>
<path d="M250.492 121.379V118.727H262.682V121.379H250.492ZM259.832 140.02C258.064 140.02 256.726 139.544 255.815 138.592C254.905 137.64 254.45 136.171 254.45 134.186V114.063L257.814 111.92V133.796C257.814 134.935 258.058 135.775 258.546 136.317C259.034 136.86 259.714 137.131 260.584 137.131C260.874 137.131 261.184 137.098 261.514 137.032C261.844 136.967 262.22 136.854 262.643 136.696V139.506C262.168 139.69 261.712 139.823 261.277 139.902C260.842 139.981 260.36 140.02 259.832 140.02Z" fill="#FAFBFF"/>
<path d="M275.98 140.021C273.948 140.021 272.193 139.566 270.716 138.655C269.238 137.745 268.11 136.459 267.332 134.797C266.554 133.134 266.165 131.222 266.165 129.058C266.165 126.895 266.58 125.008 267.411 123.398C268.242 121.789 269.39 120.529 270.855 119.618C272.319 118.708 273.974 118.253 275.822 118.253C277.668 118.253 279.285 118.642 280.67 119.421C282.055 120.199 283.124 121.307 283.876 122.745C284.628 124.183 285.004 125.891 285.004 127.871V128.979C285.004 129.349 284.977 129.638 284.925 129.849H268.143V127.316H282.867L281.679 127.91C281.705 126.406 281.481 125.14 281.006 124.111C280.531 123.081 279.845 122.303 278.948 121.775C278.051 121.248 276.995 120.984 275.782 120.984C274.595 120.984 273.539 121.248 272.616 121.775C271.692 122.303 270.96 123.121 270.419 124.229C269.878 125.337 269.608 126.789 269.608 128.583V129.177C269.608 131.71 270.155 133.676 271.25 135.074C272.345 136.473 273.987 137.171 276.178 137.171C277.47 137.171 278.578 136.908 279.502 136.38C280.426 135.852 281.191 135.034 281.798 133.926L284.489 135.272C284.014 136.301 283.381 137.171 282.589 137.884C281.798 138.596 280.848 139.131 279.74 139.487C278.632 139.843 277.378 140.021 275.98 140.021Z" fill="#FAFBFF"/>
<path d="M297.946 140.021C296.151 140.021 294.575 139.579 293.216 138.695C291.857 137.812 290.795 136.552 290.03 134.916C289.264 133.28 288.882 131.354 288.882 129.137C288.882 126.895 289.264 124.962 290.03 123.339C290.795 121.716 291.857 120.463 293.216 119.579C294.575 118.695 296.138 118.253 297.906 118.253C298.935 118.253 299.891 118.451 300.776 118.847C301.659 119.243 302.438 119.777 303.111 120.45C303.783 121.123 304.291 121.881 304.634 122.726H304.793V111.644H308.157V139.546H304.991V135.628H304.872C304.529 136.473 304.007 137.231 303.309 137.904C302.609 138.577 301.798 139.098 300.875 139.467C299.951 139.836 298.975 140.021 297.946 140.021ZM298.619 137.172C299.911 137.172 301.033 136.849 301.983 136.202C302.933 135.556 303.671 134.632 304.199 133.431C304.727 132.231 304.991 130.8 304.991 129.137C304.991 127.502 304.714 126.09 304.16 124.902C303.605 123.715 302.853 122.792 301.904 122.132C300.954 121.473 299.858 121.142 298.619 121.142C297.352 121.142 296.25 121.459 295.314 122.092C294.377 122.726 293.651 123.636 293.137 124.823C292.622 126.011 292.365 127.449 292.365 129.137C292.365 130.8 292.622 132.231 293.137 133.431C293.651 134.632 294.377 135.556 295.314 136.202C296.25 136.849 297.352 137.172 298.619 137.172Z" fill="#FAFBFF"/>
<path d="M325.254 139.546V111.644H328.618V122.726H328.737C329.08 121.881 329.588 121.123 330.261 120.45C330.934 119.777 331.718 119.243 332.616 118.847C333.512 118.451 334.462 118.253 335.465 118.253C337.286 118.253 338.869 118.695 340.215 119.579C341.56 120.463 342.609 121.716 343.361 123.339C344.113 124.962 344.489 126.895 344.489 129.137C344.489 131.354 344.113 133.28 343.361 134.916C342.609 136.552 341.554 137.812 340.195 138.695C338.836 139.579 337.259 140.021 335.465 140.021C334.41 140.021 333.42 139.836 332.497 139.467C331.573 139.098 330.762 138.577 330.063 137.904C329.364 137.231 328.856 136.473 328.539 135.628H328.381V139.546H325.254ZM334.793 137.172C336.059 137.172 337.154 136.849 338.078 136.202C339.001 135.556 339.72 134.632 340.235 133.431C340.749 132.231 341.006 130.8 341.006 129.137C341.006 127.449 340.749 126.011 340.235 124.823C339.72 123.636 339.001 122.726 338.078 122.092C337.154 121.459 336.059 121.142 334.793 121.142C333.552 121.142 332.451 121.473 331.488 122.132C330.524 122.792 329.766 123.715 329.212 124.902C328.658 126.09 328.381 127.502 328.381 129.137C328.381 130.8 328.644 132.231 329.172 133.431C329.7 134.632 330.445 135.556 331.409 136.202C332.371 136.849 333.499 137.172 334.793 137.172Z" fill="#FAFBFF"/>
<path d="M354.74 139.546L347.062 118.728H350.585L357.075 137.567H358.144V139.546H354.74ZM352.682 147.462L355.928 139.031L356.64 137.488L362.854 118.728H366.416L356.126 147.462H352.682Z" fill="#FAFBFF"/>
<path d="M379.753 121.379V118.727H391.943V121.379H379.753ZM389.094 140.02C387.326 140.02 385.987 139.544 385.077 138.592C384.166 137.64 383.711 136.171 383.711 134.186V114.063L387.075 111.92V133.796C387.075 134.935 387.319 135.775 387.807 136.317C388.295 136.86 388.975 137.131 389.846 137.131C390.136 137.131 390.446 137.098 390.776 137.032C391.105 136.967 391.481 136.854 391.904 136.696V139.506C391.429 139.69 390.974 139.823 390.538 139.902C390.103 139.981 389.621 140.02 389.094 140.02Z" fill="#FAFBFF"/>
<path d="M396.771 139.546V111.644H400.135V122.053H400.254C400.782 120.865 401.58 119.935 402.649 119.262C403.717 118.59 404.99 118.253 406.468 118.253C407.972 118.253 409.258 118.537 410.327 119.104C411.395 119.672 412.227 120.523 412.82 121.657C413.414 122.792 413.711 124.217 413.711 125.931V139.546H410.347V126.327C410.347 124.56 409.911 123.26 409.041 122.429C408.17 121.598 407.035 121.182 405.637 121.182C403.974 121.182 402.642 121.683 401.639 122.686C400.636 123.689 400.135 125.153 400.135 127.079V139.546H396.771Z" fill="#FAFBFF"/>
<path d="M428.473 140.021C426.441 140.021 424.687 139.566 423.209 138.655C421.731 137.745 420.603 136.459 419.826 134.797C419.047 133.134 418.658 131.222 418.658 129.058C418.658 126.895 419.074 125.008 419.905 123.398C420.736 121.789 421.884 120.529 423.348 119.618C424.812 118.708 426.468 118.253 428.315 118.253C430.162 118.253 431.778 118.642 433.163 119.421C434.549 120.199 435.617 121.307 436.369 122.745C437.121 124.183 437.497 125.891 437.497 127.871V128.979C437.497 129.349 437.471 129.638 437.418 129.849H420.637V127.316H435.36L434.173 127.91C434.199 126.406 433.975 125.14 433.5 124.111C433.025 123.081 432.338 122.303 431.442 121.775C430.544 121.248 429.489 120.984 428.276 120.984C427.088 120.984 426.032 121.248 425.109 121.775C424.185 122.303 423.453 123.121 422.913 124.229C422.372 125.337 422.101 126.789 422.101 128.583V129.177C422.101 131.71 422.649 133.676 423.744 135.074C424.838 136.473 426.481 137.171 428.671 137.171C429.964 137.171 431.072 136.908 431.996 136.38C432.919 135.852 433.684 135.034 434.291 133.926L436.983 135.272C436.508 136.301 435.875 137.171 435.083 137.884C434.291 138.596 433.341 139.131 432.233 139.487C431.125 139.843 429.872 140.021 428.473 140.021Z" fill="#FAFBFF"/>
<path d="M453.724 139.546V111.644H464.173C466.046 111.644 467.688 111.954 469.1 112.574C470.511 113.194 471.606 114.091 472.385 115.265C473.163 116.439 473.553 117.844 473.553 119.48C473.553 121.063 473.17 122.436 472.405 123.596C471.639 124.758 470.564 125.654 469.179 126.288C467.794 126.921 466.177 127.238 464.331 127.238H459.819V125.852H455.98V124.467H463.698C465.677 124.467 467.22 124.071 468.328 123.28C469.437 122.488 469.991 121.235 469.991 119.52C469.991 117.778 469.437 116.519 468.328 115.74C467.22 114.962 465.677 114.572 463.698 114.572H455.821L457.246 113.108V139.546H453.724ZM469.634 139.546L455.505 125.338H459.938L474.384 139.546H469.634Z" fill="#FAFBFF"/>
<path d="M487.326 140.021C485.584 140.021 484.086 139.71 482.833 139.091C481.58 138.471 480.63 137.527 479.984 136.261C479.337 134.994 479.014 133.398 479.014 131.472V118.728H482.378V131.393C482.378 133.398 482.833 134.85 483.744 135.746C484.654 136.644 485.848 137.092 487.326 137.092C488.803 137.092 490.003 136.644 490.927 135.746C491.851 134.85 492.313 133.398 492.313 131.393V118.728H495.677V131.472C495.677 133.398 495.346 134.994 494.687 136.261C494.027 137.527 493.077 138.471 491.838 139.091C490.597 139.71 489.093 140.021 487.326 140.021Z" fill="#FAFBFF"/>
<path d="M508.737 140.021C506.521 140.021 504.681 139.552 503.216 138.616C501.752 137.68 500.743 136.301 500.188 134.48L503.236 133.491C503.684 134.863 504.377 135.845 505.314 136.439C506.25 137.033 507.418 137.33 508.817 137.33C510.215 137.33 511.29 137.046 512.042 136.479C512.794 135.912 513.17 135.074 513.17 133.965C513.17 133.069 512.913 132.376 512.398 131.888C511.884 131.4 511.072 131.011 509.964 130.72L506.363 129.731C504.674 129.309 503.407 128.629 502.563 127.692C501.718 126.756 501.297 125.589 501.297 124.19C501.297 123.002 501.619 121.96 502.266 121.063C502.913 120.166 503.803 119.474 504.938 118.985C506.072 118.497 507.392 118.253 508.896 118.253C510.188 118.253 511.35 118.438 512.379 118.807C513.408 119.177 514.278 119.704 514.991 120.39C515.703 121.077 516.218 121.921 516.534 122.923L513.566 123.952C513.144 122.923 512.537 122.171 511.745 121.696C510.954 121.221 509.977 120.984 508.817 120.984C507.471 120.984 506.442 121.248 505.729 121.775C505.017 122.303 504.661 123.055 504.661 124.031C504.661 124.744 504.891 125.344 505.353 125.832C505.815 126.321 506.613 126.723 507.748 127.039L511.508 128.029C512.563 128.293 513.46 128.676 514.199 129.177C514.938 129.678 515.505 130.305 515.901 131.057C516.297 131.808 516.495 132.738 516.495 133.847C516.495 135.113 516.171 136.208 515.525 137.132C514.878 138.056 513.982 138.768 512.834 139.269C511.686 139.77 510.321 140.021 508.737 140.021Z" fill="#FAFBFF"/>
<path d="M519.621 121.379V118.727H531.811V121.379H519.621ZM528.962 140.02C527.193 140.02 525.855 139.544 524.944 138.592C524.034 137.64 523.579 136.171 523.579 134.186V114.063L526.943 111.92V133.796C526.943 134.935 527.187 135.775 527.675 136.317C528.163 136.86 528.843 137.131 529.714 137.131C530.004 137.131 530.313 137.098 530.644 137.032C530.973 136.967 531.349 136.854 531.772 136.696V139.506C531.297 139.69 530.842 139.823 530.406 139.902C529.971 139.981 529.489 140.02 528.962 140.02Z" fill="#FAFBFF"/>
<path d="M547.602 139.546V111.644H563.75V114.652H549.937L551.125 113.346V139.546H547.602ZM549.858 126.683V123.715H562.088V126.683H549.858Z" fill="#FAFBFF"/>
<path d="M575.94 140.021C574.067 140.021 572.379 139.579 570.874 138.695C569.37 137.811 568.189 136.558 567.332 134.935C566.475 133.312 566.046 131.393 566.046 129.177C566.046 126.934 566.481 125.001 567.352 123.378C568.223 121.756 569.41 120.496 570.914 119.599C572.418 118.702 574.093 118.253 575.94 118.253C577.84 118.253 579.542 118.695 581.046 119.579C582.55 120.463 583.731 121.716 584.588 123.339C585.445 124.961 585.875 126.908 585.875 129.177C585.875 131.393 585.445 133.312 584.588 134.935C583.731 136.558 582.55 137.811 581.046 138.695C579.542 139.579 577.84 140.021 575.94 140.021ZM575.98 137.171C577.141 137.171 578.209 136.881 579.186 136.301C580.162 135.721 580.94 134.843 581.521 133.669C582.101 132.495 582.392 130.997 582.392 129.177C582.392 127.33 582.101 125.812 581.521 124.625C580.94 123.438 580.162 122.561 579.186 121.993C578.209 121.426 577.141 121.142 575.98 121.142C574.793 121.142 573.711 121.426 572.735 121.993C571.758 122.561 570.98 123.438 570.4 124.625C569.819 125.812 569.529 127.33 569.529 129.177C569.529 130.997 569.819 132.495 570.4 133.669C570.98 134.843 571.758 135.721 572.735 136.301C573.711 136.881 574.793 137.171 575.98 137.171Z" fill="#FAFBFF"/>
<path d="M599.133 140.021C597.392 140.021 595.894 139.71 594.641 139.091C593.388 138.471 592.438 137.527 591.791 136.261C591.145 134.994 590.822 133.398 590.822 131.472V118.728H594.186V131.393C594.186 133.398 594.641 134.85 595.551 135.746C596.462 136.644 597.655 137.092 599.133 137.092C600.611 137.092 601.811 136.644 602.735 135.746C603.658 134.85 604.12 133.398 604.12 131.393V118.728H607.484V131.472C607.484 133.398 607.154 134.994 606.495 136.261C605.835 137.527 604.885 138.471 603.645 139.091C602.405 139.71 600.901 140.021 599.133 140.021Z" fill="#FAFBFF"/>
<path d="M627.075 139.546V126.327C627.075 124.559 626.64 123.26 625.769 122.428C624.898 121.597 623.764 121.182 622.365 121.182C620.703 121.182 619.37 121.716 618.368 122.785C617.365 123.853 616.864 125.285 616.864 127.079V139.546H613.5V118.728H616.587V122.369H616.706C617.26 121.077 618.091 120.067 619.199 119.341C620.307 118.616 621.653 118.253 623.236 118.253C624.713 118.253 625.987 118.537 627.055 119.104C628.124 119.672 628.955 120.522 629.549 121.657C630.142 122.791 630.439 124.216 630.439 125.931V139.546H627.075Z" fill="#FAFBFF"/>
<path d="M644.41 140.021C642.616 140.021 641.039 139.579 639.681 138.695C638.321 137.812 637.26 136.552 636.495 134.916C635.729 133.28 635.347 131.354 635.347 129.137C635.347 126.895 635.729 124.962 636.495 123.339C637.26 121.716 638.321 120.463 639.681 119.579C641.039 118.695 642.603 118.253 644.371 118.253C645.4 118.253 646.356 118.451 647.24 118.847C648.124 119.243 648.902 119.777 649.575 120.45C650.248 121.123 650.756 121.881 651.099 122.726H651.257V111.644H654.622V139.546H651.455V135.628H651.336C650.993 136.473 650.472 137.231 649.773 137.904C649.074 138.577 648.262 139.098 647.339 139.467C646.415 139.836 645.439 140.021 644.41 140.021ZM645.083 137.172C646.376 137.172 647.497 136.849 648.447 136.202C649.397 135.556 650.136 134.632 650.664 133.431C651.191 132.231 651.455 130.8 651.455 129.137C651.455 127.502 651.178 126.09 650.624 124.902C650.07 123.715 649.318 122.792 648.368 122.132C647.418 121.473 646.323 121.142 645.083 121.142C643.817 121.142 642.715 121.459 641.778 122.092C640.841 122.726 640.116 123.636 639.602 124.823C639.087 126.011 638.83 127.449 638.83 129.137C638.83 130.8 639.087 132.231 639.602 133.431C640.116 134.632 640.841 135.556 641.778 136.202C642.715 136.849 643.817 137.172 645.083 137.172Z" fill="#FAFBFF"/>
<path d="M666.692 140.021C664.634 140.021 662.972 139.48 661.706 138.398C660.439 137.317 659.806 135.879 659.806 134.084C659.806 132.369 660.419 130.958 661.646 129.849C662.873 128.741 664.608 128.029 666.851 127.712L674.766 126.525V129.018L667.88 130.008C666.323 130.245 665.162 130.694 664.397 131.353C663.631 132.013 663.249 132.884 663.249 133.965C663.249 135.021 663.611 135.845 664.337 136.439C665.063 137.033 666.072 137.33 667.365 137.33C668.499 137.33 669.489 137.072 670.334 136.558C671.178 136.043 671.831 135.318 672.293 134.381C672.754 133.445 672.985 132.343 672.985 131.076V125.496C672.985 124.15 672.609 123.075 671.857 122.27C671.105 121.466 669.977 121.063 668.473 121.063C667.154 121.063 666.085 121.354 665.268 121.934C664.449 122.514 663.882 123.412 663.566 124.625L660.399 123.754C660.848 122.066 661.798 120.727 663.249 119.737C664.7 118.748 666.468 118.253 668.552 118.253C671.165 118.253 673.117 118.9 674.41 120.192C675.703 121.485 676.349 123.279 676.349 125.575V135.311L677.893 139.546H674.331L673.183 136.34H673.025C672.418 137.448 671.567 138.339 670.472 139.012C669.377 139.685 668.117 140.021 666.692 140.021Z" fill="#FAFBFF"/>
<path d="M680.307 121.379V118.727H692.497V121.379H680.307ZM689.648 140.02C687.88 140.02 686.541 139.544 685.631 138.592C684.72 137.64 684.265 136.171 684.265 134.186V114.063L687.629 111.92V133.796C687.629 134.935 687.873 135.775 688.362 136.317C688.849 136.86 689.529 137.131 690.4 137.131C690.69 137.131 691 137.098 691.33 137.032C691.659 136.967 692.036 136.854 692.458 136.696V139.506C691.983 139.69 691.528 139.823 691.092 139.902C690.657 139.981 690.175 140.02 689.648 140.02Z" fill="#FAFBFF"/>
<path d="M699.067 115.324C698.434 115.324 697.899 115.113 697.464 114.691C697.028 114.269 696.811 113.728 696.811 113.068C696.811 112.435 697.028 111.907 697.464 111.485C697.899 111.063 698.434 110.852 699.067 110.852C699.673 110.852 700.195 111.063 700.63 111.485C701.066 111.907 701.283 112.435 701.283 113.068C701.283 113.728 701.066 114.269 700.63 114.691C700.195 115.113 699.673 115.324 699.067 115.324ZM697.325 139.546V118.728H700.689V139.546H697.325Z" fill="#FAFBFF"/>
<path d="M715.729 140.021C713.855 140.021 712.167 139.579 710.663 138.695C709.159 137.811 707.978 136.558 707.121 134.935C706.263 133.312 705.834 131.393 705.834 129.177C705.834 126.934 706.27 125.001 707.141 123.378C708.011 121.756 709.199 120.496 710.703 119.599C712.207 118.702 713.882 118.253 715.729 118.253C717.629 118.253 719.331 118.695 720.835 119.579C722.339 120.463 723.519 121.716 724.377 123.339C725.234 124.961 725.663 126.908 725.663 129.177C725.663 131.393 725.234 133.312 724.377 134.935C723.519 136.558 722.339 137.811 720.835 138.695C719.331 139.579 717.629 140.021 715.729 140.021ZM715.769 137.171C716.929 137.171 717.998 136.881 718.974 136.301C719.95 135.721 720.729 134.843 721.31 133.669C721.89 132.495 722.18 130.997 722.18 129.177C722.18 127.33 721.89 125.812 721.31 124.625C720.729 123.438 719.95 122.561 718.974 121.993C717.998 121.426 716.929 121.142 715.769 121.142C714.581 121.142 713.499 121.426 712.523 121.993C711.547 122.561 710.768 123.438 710.188 124.625C709.607 125.812 709.317 127.33 709.317 129.177C709.317 130.997 709.607 132.495 710.188 133.669C710.768 134.843 711.547 135.721 712.523 136.301C713.499 136.881 714.581 137.171 715.769 137.171Z" fill="#FAFBFF"/>
<path d="M744.384 139.546V126.327C744.384 124.559 743.948 123.26 743.078 122.428C742.207 121.597 741.072 121.182 739.674 121.182C738.012 121.182 736.679 121.716 735.677 122.785C734.673 123.853 734.172 125.285 734.172 127.079V139.546H730.808V118.728H733.895V122.369H734.014C734.568 121.077 735.399 120.067 736.508 119.341C737.616 118.616 738.961 118.253 740.545 118.253C742.022 118.253 743.295 118.537 744.364 119.104C745.432 119.672 746.264 120.522 746.857 121.657C747.451 122.791 747.748 124.216 747.748 125.931V139.546H744.384Z" fill="#FAFBFF"/>
</g>
<defs>
<clipPath id="clip0_556_8700">
<rect width="748" height="157" fill="white"/>
</clipPath>
</defs>
</svg>
